<mxfile host="app.diagrams.net" modified="2020-12-20T16:39:40.375Z" agent="5.0 (Windows NT 10.0; Win64; x64) AppleWebKit/537.36 (KHTML, like Gecko) Chrome/87.0.4280.88 Safari/537.36" etag="2cOam9Wcdp520hzxLbN4" version="14.1.1" type="github">
  <diagram id="SEuXu_cQIe-IU6bPCZao" name="Page-1">
    <mxGraphModel dx="2733" dy="1701" grid="1" gridSize="10" guides="1" tooltips="1" connect="1" arrows="1" fold="1" page="1" pageScale="1" pageWidth="1169" pageHeight="827" math="0" shadow="0">
      <root>
        <mxCell id="0" />
        <mxCell id="1" parent="0" />
        <mxCell id="DzhI03-w_DWL_AGSozUM-32" style="edgeStyle=orthogonalEdgeStyle;rounded=0;orthogonalLoop=1;jettySize=auto;html=1;entryX=0.5;entryY=0;entryDx=0;entryDy=0;" parent="1" edge="1">
          <mxGeometry relative="1" as="geometry">
            <mxPoint x="770" y="410" as="sourcePoint" />
          </mxGeometry>
        </mxCell>
        <mxCell id="DzhI03-w_DWL_AGSozUM-33" style="edgeStyle=orthogonalEdgeStyle;rounded=0;orthogonalLoop=1;jettySize=auto;html=1;entryX=0.5;entryY=0;entryDx=0;entryDy=0;" parent="1" edge="1">
          <mxGeometry relative="1" as="geometry">
            <mxPoint x="830" y="410" as="sourcePoint" />
          </mxGeometry>
        </mxCell>
        <mxCell id="pD4ybXwd8v27qpeQFJHa-65" style="edgeStyle=orthogonalEdgeStyle;rounded=0;orthogonalLoop=1;jettySize=auto;html=1;entryX=0.5;entryY=0;entryDx=0;entryDy=0;" parent="1" source="pD4ybXwd8v27qpeQFJHa-66" target="pD4ybXwd8v27qpeQFJHa-92" edge="1">
          <mxGeometry relative="1" as="geometry" />
        </mxCell>
        <mxCell id="pD4ybXwd8v27qpeQFJHa-66" value="" style="ellipse;whiteSpace=wrap;html=1;aspect=fixed;" parent="1" vertex="1">
          <mxGeometry x="750.0000000000001" y="-40" width="60" height="60" as="geometry" />
        </mxCell>
        <mxCell id="pD4ybXwd8v27qpeQFJHa-67" style="edgeStyle=orthogonalEdgeStyle;rounded=0;orthogonalLoop=1;jettySize=auto;html=1;entryX=0.5;entryY=0;entryDx=0;entryDy=0;" parent="1" source="pD4ybXwd8v27qpeQFJHa-68" target="pD4ybXwd8v27qpeQFJHa-73" edge="1">
          <mxGeometry relative="1" as="geometry" />
        </mxCell>
        <mxCell id="pD4ybXwd8v27qpeQFJHa-68" value="&lt;span style=&quot;font-size: 16px&quot;&gt;Path&lt;/span&gt;" style="rounded=0;whiteSpace=wrap;html=1;fillColor=#b0e3e6;strokeColor=none;fontStyle=2" parent="1" vertex="1">
          <mxGeometry x="500" y="140" width="160" height="40" as="geometry" />
        </mxCell>
        <mxCell id="pD4ybXwd8v27qpeQFJHa-69" style="edgeStyle=orthogonalEdgeStyle;rounded=0;orthogonalLoop=1;jettySize=auto;html=1;entryX=0.5;entryY=0;entryDx=0;entryDy=0;" parent="1" source="pD4ybXwd8v27qpeQFJHa-73" target="pD4ybXwd8v27qpeQFJHa-82" edge="1">
          <mxGeometry relative="1" as="geometry">
            <Array as="points">
              <mxPoint x="340" y="250" />
            </Array>
          </mxGeometry>
        </mxCell>
        <mxCell id="pD4ybXwd8v27qpeQFJHa-70" value="&lt;font color=&quot;#000000&quot; style=&quot;font-size: 13px&quot;&gt;coin:present&lt;/font&gt;" style="edgeLabel;html=1;align=center;verticalAlign=bottom;resizable=0;points=[];fontColor=#FFFFFF;fontSize=13;fontStyle=2;spacingTop=0;spacing=2;spacingLeft=0;labelPosition=center;verticalLabelPosition=top;labelBackgroundColor=none;" parent="pD4ybXwd8v27qpeQFJHa-69" vertex="1" connectable="0">
          <mxGeometry x="-0.3085" y="-1" relative="1" as="geometry">
            <mxPoint as="offset" />
          </mxGeometry>
        </mxCell>
        <mxCell id="pD4ybXwd8v27qpeQFJHa-71" style="edgeStyle=orthogonalEdgeStyle;rounded=0;orthogonalLoop=1;jettySize=auto;html=1;entryX=0.5;entryY=0;entryDx=0;entryDy=0;" parent="1" source="pD4ybXwd8v27qpeQFJHa-73" target="pD4ybXwd8v27qpeQFJHa-83" edge="1">
          <mxGeometry relative="1" as="geometry" />
        </mxCell>
        <mxCell id="pD4ybXwd8v27qpeQFJHa-72" value="coin:absent" style="edgeLabel;html=1;align=center;verticalAlign=bottom;resizable=0;points=[];fontSize=13;fontStyle=2;labelPosition=center;verticalLabelPosition=top;labelBackgroundColor=none;" parent="pD4ybXwd8v27qpeQFJHa-71" vertex="1" connectable="0">
          <mxGeometry x="-0.4058" y="2" relative="1" as="geometry">
            <mxPoint x="-33.2" as="offset" />
          </mxGeometry>
        </mxCell>
        <mxCell id="pD4ybXwd8v27qpeQFJHa-73" value="" style="rhombus;whiteSpace=wrap;html=1;" parent="1" vertex="1">
          <mxGeometry x="550" y="220" width="60" height="60" as="geometry" />
        </mxCell>
        <mxCell id="pD4ybXwd8v27qpeQFJHa-74" style="edgeStyle=orthogonalEdgeStyle;rounded=0;orthogonalLoop=1;jettySize=auto;html=1;entryX=0.5;entryY=0;entryDx=0;entryDy=0;" parent="1" source="pD4ybXwd8v27qpeQFJHa-80" target="pD4ybXwd8v27qpeQFJHa-84" edge="1">
          <mxGeometry relative="1" as="geometry" />
        </mxCell>
        <mxCell id="pD4ybXwd8v27qpeQFJHa-75" value="&lt;font color=&quot;#000000&quot;&gt;proceed:juice&lt;/font&gt;" style="edgeLabel;html=1;align=center;verticalAlign=bottom;resizable=0;points=[];fontColor=#FFFFFF;fontSize=13;fontStyle=2;labelPosition=center;verticalLabelPosition=top;labelBackgroundColor=none;" parent="pD4ybXwd8v27qpeQFJHa-74" vertex="1" connectable="0">
          <mxGeometry x="-0.1563" y="-1" relative="1" as="geometry">
            <mxPoint as="offset" />
          </mxGeometry>
        </mxCell>
        <mxCell id="pD4ybXwd8v27qpeQFJHa-76" style="edgeStyle=orthogonalEdgeStyle;rounded=0;orthogonalLoop=1;jettySize=auto;html=1;labelPosition=center;verticalLabelPosition=top;align=center;verticalAlign=bottom;" parent="1" source="pD4ybXwd8v27qpeQFJHa-80" target="pD4ybXwd8v27qpeQFJHa-85" edge="1">
          <mxGeometry relative="1" as="geometry" />
        </mxCell>
        <mxCell id="pD4ybXwd8v27qpeQFJHa-77" value="proceed:food" style="edgeLabel;html=1;align=center;verticalAlign=bottom;resizable=0;points=[];fontSize=13;fontStyle=2;labelPosition=center;verticalLabelPosition=top;labelBackgroundColor=none;" parent="pD4ybXwd8v27qpeQFJHa-76" vertex="1" connectable="0">
          <mxGeometry x="-0.3225" y="2" relative="1" as="geometry">
            <mxPoint as="offset" />
          </mxGeometry>
        </mxCell>
        <mxCell id="pD4ybXwd8v27qpeQFJHa-78" style="edgeStyle=orthogonalEdgeStyle;rounded=0;orthogonalLoop=1;jettySize=auto;html=1;entryX=0.5;entryY=0;entryDx=0;entryDy=0;fontColor=#FFFFFF;" parent="1" source="pD4ybXwd8v27qpeQFJHa-80" target="pD4ybXwd8v27qpeQFJHa-86" edge="1">
          <mxGeometry relative="1" as="geometry" />
        </mxCell>
        <mxCell id="pD4ybXwd8v27qpeQFJHa-79" value="&lt;font color=&quot;#000000&quot; style=&quot;font-size: 13px&quot;&gt;curve: none&lt;/font&gt;" style="edgeLabel;html=1;align=left;verticalAlign=middle;resizable=0;points=[];fontColor=#FFFFFF;fontStyle=2;fontSize=13;labelPosition=right;verticalLabelPosition=middle;spacingLeft=4;labelBackgroundColor=none;" parent="pD4ybXwd8v27qpeQFJHa-78" vertex="1" connectable="0">
          <mxGeometry x="-0.1827" relative="1" as="geometry">
            <mxPoint as="offset" />
          </mxGeometry>
        </mxCell>
        <mxCell id="pD4ybXwd8v27qpeQFJHa-80" value="" style="rhombus;whiteSpace=wrap;html=1;" parent="1" vertex="1">
          <mxGeometry x="310" y="400" width="60" height="60" as="geometry" />
        </mxCell>
        <mxCell id="pD4ybXwd8v27qpeQFJHa-81" style="edgeStyle=orthogonalEdgeStyle;rounded=0;orthogonalLoop=1;jettySize=auto;html=1;entryX=0.5;entryY=0;entryDx=0;entryDy=0;" parent="1" source="pD4ybXwd8v27qpeQFJHa-82" target="pD4ybXwd8v27qpeQFJHa-80" edge="1">
          <mxGeometry relative="1" as="geometry" />
        </mxCell>
        <mxCell id="pD4ybXwd8v27qpeQFJHa-82" value="&lt;span style=&quot;font-size: 16px&quot;&gt;Path Curvature&lt;/span&gt;" style="rounded=0;whiteSpace=wrap;html=1;fillColor=#b0e3e6;strokeColor=none;fontStyle=2" parent="1" vertex="1">
          <mxGeometry x="260" y="320" width="160" height="40" as="geometry" />
        </mxCell>
        <mxCell id="pD4ybXwd8v27qpeQFJHa-83" value="&lt;span style=&quot;font-size: 16px&quot;&gt;throttle: off&lt;br&gt;steer: none&lt;br&gt;&lt;/span&gt;" style="rounded=0;whiteSpace=wrap;html=1;fillColor=#b0e3e6;strokeColor=none;fontStyle=2" parent="1" vertex="1">
          <mxGeometry x="740" y="320" width="160" height="40" as="geometry" />
        </mxCell>
        <mxCell id="pD4ybXwd8v27qpeQFJHa-84" value="&lt;font style=&quot;font-size: 14px;&quot;&gt;throttle: on&lt;br style=&quot;font-size: 14px;&quot;&gt;steer: left&lt;br style=&quot;font-size: 14px;&quot;&gt;&lt;/font&gt;" style="rounded=0;whiteSpace=wrap;html=1;fillColor=#b0e3e6;fontStyle=2;strokeColor=none;fontSize=14;" parent="1" vertex="1">
          <mxGeometry x="-20" y="500" width="160" height="40" as="geometry" />
        </mxCell>
        <mxCell id="pD4ybXwd8v27qpeQFJHa-85" value="&lt;font style=&quot;font-size: 14px;&quot;&gt;throttle: on&lt;br style=&quot;font-size: 14px;&quot;&gt;steer: right&lt;br style=&quot;font-size: 14px;&quot;&gt;&lt;/font&gt;" style="rounded=0;whiteSpace=wrap;html=1;fillColor=#b0e3e6;fontStyle=2;strokeColor=none;fontSize=14;" parent="1" vertex="1">
          <mxGeometry x="530" y="500" width="160" height="40" as="geometry" />
        </mxCell>
        <mxCell id="pD4ybXwd8v27qpeQFJHa-86" value="&lt;font style=&quot;font-size: 14px;&quot;&gt;throttle: on&lt;br style=&quot;font-size: 14px;&quot;&gt;steer: none&lt;br style=&quot;font-size: 14px;&quot;&gt;&lt;/font&gt;" style="rounded=0;whiteSpace=wrap;html=1;fillColor=#b0e3e6;fontStyle=2;strokeColor=none;fontSize=14;" parent="1" vertex="1">
          <mxGeometry x="260" y="500" width="160" height="40" as="geometry" />
        </mxCell>
        <mxCell id="pD4ybXwd8v27qpeQFJHa-87" value="Coin" style="rounded=0;whiteSpace=wrap;html=1;fillColor=#b0e3e6;strokeColor=none;fontStyle=2;fontSize=14;" parent="1" vertex="1">
          <mxGeometry x="500" y="140" width="160" height="40" as="geometry" />
        </mxCell>
        <mxCell id="pD4ybXwd8v27qpeQFJHa-88" value="proceed" style="rounded=0;whiteSpace=wrap;html=1;fillColor=#b0e3e6;strokeColor=none;fontStyle=2;fontSize=14;" parent="1" vertex="1">
          <mxGeometry x="260" y="320" width="160" height="40" as="geometry" />
        </mxCell>
        <mxCell id="pD4ybXwd8v27qpeQFJHa-89" value="&lt;span style=&quot;font-size: 14px&quot;&gt;function:null&lt;br style=&quot;font-size: 14px&quot;&gt;&lt;/span&gt;" style="rounded=0;whiteSpace=wrap;html=1;fillColor=#b0e3e6;strokeColor=none;fontStyle=2;fontSize=14;" parent="1" vertex="1">
          <mxGeometry x="740" y="320" width="160" height="40" as="geometry" />
        </mxCell>
        <mxCell id="pD4ybXwd8v27qpeQFJHa-90" style="edgeStyle=orthogonalEdgeStyle;rounded=0;orthogonalLoop=1;jettySize=auto;html=1;exitX=0.5;exitY=1;exitDx=0;exitDy=0;" parent="1" source="pD4ybXwd8v27qpeQFJHa-92" target="pD4ybXwd8v27qpeQFJHa-87" edge="1">
          <mxGeometry relative="1" as="geometry" />
        </mxCell>
        <mxCell id="pD4ybXwd8v27qpeQFJHa-91" style="edgeStyle=orthogonalEdgeStyle;rounded=0;orthogonalLoop=1;jettySize=auto;html=1;entryX=0.5;entryY=0;entryDx=0;entryDy=0;exitX=0.5;exitY=1;exitDx=0;exitDy=0;" parent="1" source="pD4ybXwd8v27qpeQFJHa-92" target="pD4ybXwd8v27qpeQFJHa-94" edge="1">
          <mxGeometry relative="1" as="geometry" />
        </mxCell>
        <mxCell id="pD4ybXwd8v27qpeQFJHa-92" value="&lt;span style=&quot;font-size: 14px&quot;&gt;Read Information&lt;/span&gt;" style="rounded=0;whiteSpace=wrap;html=1;fillColor=#b0e3e6;strokeColor=none;fontStyle=2;fontSize=14;" parent="1" vertex="1">
          <mxGeometry x="700.0000000000001" y="60" width="160" height="40" as="geometry" />
        </mxCell>
        <mxCell id="pD4ybXwd8v27qpeQFJHa-93" style="edgeStyle=orthogonalEdgeStyle;rounded=0;orthogonalLoop=1;jettySize=auto;html=1;entryX=0.5;entryY=0;entryDx=0;entryDy=0;" parent="1" source="pD4ybXwd8v27qpeQFJHa-94" target="pD4ybXwd8v27qpeQFJHa-96" edge="1">
          <mxGeometry relative="1" as="geometry" />
        </mxCell>
        <mxCell id="pD4ybXwd8v27qpeQFJHa-94" value="Null" style="rounded=0;whiteSpace=wrap;html=1;fillColor=#b0e3e6;strokeColor=none;fontStyle=2;fontSize=14;" parent="1" vertex="1">
          <mxGeometry x="900.0000000000001" y="140" width="160" height="40" as="geometry" />
        </mxCell>
        <mxCell id="pD4ybXwd8v27qpeQFJHa-95" style="edgeStyle=orthogonalEdgeStyle;rounded=0;orthogonalLoop=1;jettySize=auto;html=1;exitX=0.5;exitY=1;exitDx=0;exitDy=0;entryX=1;entryY=0.5;entryDx=0;entryDy=0;" parent="1" source="pD4ybXwd8v27qpeQFJHa-96" target="pD4ybXwd8v27qpeQFJHa-92" edge="1">
          <mxGeometry relative="1" as="geometry">
            <Array as="points">
              <mxPoint x="980" y="280" />
              <mxPoint x="1090" y="280" />
              <mxPoint x="1090" y="80" />
            </Array>
          </mxGeometry>
        </mxCell>
        <mxCell id="pD4ybXwd8v27qpeQFJHa-96" value="&lt;span style=&quot;font-size: 14px&quot;&gt;Store value&lt;/span&gt;" style="rounded=0;whiteSpace=wrap;html=1;fillColor=#b0e3e6;strokeColor=none;fontStyle=2;fontSize=14;" parent="1" vertex="1">
          <mxGeometry x="900.0000000000001" y="220" width="160" height="40" as="geometry" />
        </mxCell>
      </root>
    </mxGraphModel>
  </diagram>
</mxfile>
